<svg width="36" height="31" viewBox="0 0 36 31" fill="none" xmlns="http://www.w3.org/2000/svg">
<path fill-rule="evenodd" clip-rule="evenodd" d="M3.19363 15.9535C3.77048 15.9535 4.16964 16.5633 4.16964 17.1401V26.0056C4.16964 27.6625 5.51278 29.0056 7.16964 29.0056H22.924C24.5809 29.0056 25.924 27.6625 25.924 26.0056V17.1401C25.924 15.4833 24.5809 14.1401 22.924 14.1401H7.16964C7.15083 14.1401 7.13205 14.1403 7.11332 14.1407H0.906433C0.405824 14.1407 0 14.5465 0 15.0471C0 15.5477 0.405824 15.9535 0.906434 15.9535H3.19363Z" fill="black"/>
<path fill-rule="evenodd" clip-rule="evenodd" d="M14.5951 6.7099C14.5945 6.70881 14.5942 6.70758 14.5943 6.70635C14.5987 6.6112 14.601 6.51551 14.601 6.41933C14.601 2.87403 11.5354 0 7.75372 0C3.97207 0 0.906433 2.87403 0.906433 6.41933C0.906433 9.27037 2.88897 11.6873 5.63212 12.5246C5.74732 12.5597 5.82817 12.6648 5.82817 12.7853C5.82817 12.933 5.94789 13.0527 6.09557 13.0527H23.1069C23.2546 13.0527 23.3743 12.9329 23.3743 12.7852C23.3743 12.6648 23.4552 12.5596 23.5704 12.5244C26.3134 11.6871 28.2957 9.27023 28.2957 6.41933C28.2957 2.87403 25.2301 0 21.4484 0C17.6668 0 14.6011 2.87403 14.6011 6.41933C14.6011 6.5155 14.6034 6.61117 14.6079 6.70631C14.6082 6.7135 14.5985 6.71622 14.5951 6.7099Z" fill="black"/>
<circle cx="7.7049" cy="6.61695" r="4.62281" fill="#F08726"/>
<circle cx="21.3012" cy="6.61695" r="4.62281" fill="#F08726"/>
<path d="M26.649 18.1658C26.649 17.7828 26.8678 17.4334 27.2124 17.2662L34.4581 13.7499C35.1222 13.4276 35.8947 13.9113 35.8947 14.6496V29.1306C35.8947 29.9295 35.0041 30.4059 34.3396 29.9624L27.094 25.1276C26.816 24.9421 26.649 24.63 26.649 24.2958V18.1658Z" fill="black"/>
</svg>
